# xmcd
#
# Track frame offsets: 
#        150
#        6442
#        21658
#        41669
#        61180
#        75295
#        97868
#        117615
#        131981
#        144293
#        163583
#        191029
#        213573
#        222573
#
# Disc length: 3161 seconds
#
# Revision: 0
# Processed by: cddbd v1.5.2PL0 Copyright (c) Steve Scherf et al.
# Submitted via: ExactAudioCopyFreeDBPlugin 1.0
#
DISCID=ce0c570e
DTITLE=Elliott Sharp's Terraplane - Sky Road Songs
DYEAR=2012
DGENRE=Blues
TTITLE0=Outward
TTITLE1=Endless Path
TTITLE2=Down On The Block
TTITLE3=Dangerous Lands
TTITLE4=Banking Blues
TTITLE5=This House Is For Sale
TTITLE6=Fade To Noir
TTITLE7=Off The Hook
TTITLE8=Off My Mind
TTITLE9=I Blame You
TTITLE10=The Common Extreme
TTITLE11=Sky Road Song
TTITLE12=Inward
TTITLE13=Banking Blues
EXTD=
EXTT0=
EXTT1=
EXTT2=
EXTT3=
EXTT4=
EXTT5=
EXTT6=
EXTT7=
EXTT8=
EXTT9=
EXTT10=
EXTT11=
EXTT12=
EXTT13=
PLAYORDER=
